<svg width="20" height="20" viewBox="0 0 20 20" xmlns="http://www.w3.org/2000/svg">
<path d="M12.25 0.950195C12.6611 0.950195 13.055 1.11362 13.3457 1.4043C13.6364 1.69498 13.7998 2.08892 13.7998 2.5V3.9502H17.5C17.9111 3.9502 18.305 4.11362 18.5957 4.4043C18.8864 4.69498 19.0498 5.08892 19.0498 5.5V17.5C19.0498 17.9111 18.8864 18.305 18.5957 18.5957C18.305 18.8864 17.9111 19.0498 17.5 19.0498H2.5C2.08891 19.0498 1.69498 18.8864 1.4043 18.5957C1.11362 18.305 0.950195 17.9111 0.950195 17.5V5.5C0.950195 5.08892 1.11362 4.69498 1.4043 4.4043C1.69498 4.11362 2.08891 3.9502 2.5 3.9502H6.2002V2.5C6.2002 2.08892 6.36362 1.69498 6.6543 1.4043C6.94498 1.11362 7.33891 0.950195 7.75 0.950195H12.25ZM2.5498 17.4502H17.4502V12.2998H13.7969C13.7842 12.6928 13.6246 13.0668 13.3457 13.3457C13.055 13.6364 12.6611 13.7998 12.25 13.7998H7.75C7.33891 13.7998 6.94498 13.6364 6.6543 13.3457C6.3754 13.0668 6.21577 12.6928 6.20312 12.2998H2.5498V17.4502ZM8.5 10.7998C8.31435 10.7998 8.13615 10.8736 8.00488 11.0049C7.87361 11.1362 7.7998 11.3143 7.7998 11.5C7.7998 11.6857 7.87361 11.8638 8.00488 11.9951C8.13615 12.1264 8.31435 12.2002 8.5 12.2002H11.5C11.6856 12.2002 11.8638 12.1264 11.9951 11.9951C12.1264 11.8638 12.2002 11.6857 12.2002 11.5C12.2002 11.3143 12.1264 11.1362 11.9951 11.0049C11.8638 10.8736 11.6856 10.7998 11.5 10.7998H8.5ZM2.5498 10.7002H6.20312C6.21577 10.3072 6.3754 9.9332 6.6543 9.6543C6.94498 9.36362 7.33891 9.2002 7.75 9.2002H12.25C12.6611 9.2002 13.055 9.36362 13.3457 9.6543C13.6246 9.9332 13.7842 10.3072 13.7969 10.7002H17.4502V5.5498H2.5498V10.7002ZM7.7998 3.9502H12.2002V2.5498H7.7998V3.9502Z"/>
</svg>
