<svg width="19" height="19" viewBox="0 0 19 19" xmlns="http://www.w3.org/2000/svg">
  <path d="M19 9.4684C19.0008 9.86944 18.8922 10.2625 18.6866 10.6018C18.4811 10.9412 18.1871 11.2129 17.839 11.3853L2.9187 18.7352C2.64562 18.8901 2.34311 18.9805 2.03265 19C1.69291 18.9993 1.35875 18.9102 1.06058 18.7408C0.762408 18.5715 0.509706 18.3273 0.325478 18.0305C0.14125 17.7336 0.0313482 17.3936 0.00577791 17.0413C-0.0197924 16.689 0.0397813 16.3357 0.179075 16.0134L2.50114 10.5275H8.14334C8.41345 10.5275 8.67249 10.4159 8.86349 10.2173C9.05449 10.0187 9.16179 9.74928 9.16179 9.4684C9.16179 9.18752 9.05449 8.91814 8.86349 8.71953C8.67249 8.52091 8.41345 8.40933 8.14334 8.40933H2.50114L0.179075 2.97632C0.0108193 2.58151 -0.0373677 2.14265 0.0409728 1.71856C0.119313 1.29447 0.320438 0.905413 0.617391 0.60353C0.914344 0.301647 1.29294 0.101362 1.70243 0.0295191C2.11193 -0.0423241 2.53275 0.0177067 2.90852 0.201566L17.8288 7.55149C18.1789 7.72241 18.4749 7.99345 18.6823 8.33291C18.8897 8.67237 18.9999 9.06622 19 9.4684Z" />
</svg>