<svg width="22" height="27" viewBox="0 0 22 27" fill="none" xmlns="http://www.w3.org/2000/svg">
<path d="M20.1897 15.6903L16.8564 21.4638C15.7955 23.3013 14.0482 24.6421 11.9988 25.1912C9.94932 25.7404 7.76568 25.4529 5.9282 24.392C4.09073 23.3312 2.74994 21.5838 2.2008 19.5344C1.65165 17.4849 1.93913 15.3013 3 13.4638L8.33333 4.22622C9.04058 3.00124 10.2055 2.10738 11.5718 1.74129C12.9381 1.37519 14.3938 1.56684 15.6188 2.27409C16.8438 2.98133 17.7376 4.14623 18.1037 5.51252C18.4698 6.87881 18.2782 8.33458 17.5709 9.55956L12.2376 18.7972C11.884 19.4097 11.3015 19.8566 10.6184 20.0396C9.93524 20.2227 9.20736 20.1269 8.59487 19.7732C7.98238 19.4196 7.53545 18.8372 7.3524 18.154C7.16935 17.4709 7.26518 16.743 7.6188 16.1305L12.9521 6.89289" stroke-linecap="round" stroke-linejoin="round"/>
</svg>
