<svg width="14" height="14" viewBox="0 0 14 14" fill="none" xmlns="http://www.w3.org/2000/svg">
  <path d="M8.66699 1V1.8125C8.66699 3.34457 8.66699 4.11061 9.12853 4.58655C9.59007 5.06251 10.3329 5.06251 11.8185 5.06251H13.0003M13.0003 5.06251L11.0306 3.43751M13.0003 5.06251L11.0306 6.68751" stroke="#B1B1B1" stroke-linecap="round" stroke-linejoin="round" />
  <path d="M4.7569 2.06939L5.26823 3.01427C5.72969 3.86698 5.54446 4.98558 4.81764 5.7351C4.81764 5.7351 3.93615 6.64429 5.53446 8.29261C7.13227 9.94036 8.01446 9.03182 8.01446 9.03182C8.74128 8.28229 9.82595 8.09127 10.6528 8.56715L11.5691 9.09447C12.8177 9.81305 12.9651 11.6187 11.8677 12.7506C11.2082 13.4306 10.4003 13.9598 9.50726 13.9947C8.0039 14.0535 5.45078 13.6611 2.8897 11.02C0.328649 8.3789 -0.0518329 5.746 0.00516224 4.19564C0.0390174 3.27468 0.552147 2.44157 1.21161 1.7615C2.30909 0.629727 4.06007 0.781795 4.7569 2.06939Z" fill="#B1B1B1" />
</svg>