<svg width="15" height="17" viewBox="0 0 15 17" xmlns="http://www.w3.org/2000/svg">
  <path d="M4.25865 0.597318C4.25865 0.597318 4.00708 0 3.62288 0C3.24477 0 3.0481 0.176955 2.91698 0.299046C2.78586 0.421136 0.591929 2.24864 0.591929 2.24864C0.591929 2.24864 -0.0461262 2.8135 0.00266177 3.876C0.0438266 4.9385 0.248888 6.45073 1.31307 8.55718C2.36964 10.659 5.0141 13.8705 6.68508 14.9994C6.68508 14.9994 8.23334 16.2033 9.6741 16.6925C10.0926 16.8261 10.9296 17 11.1248 17C11.323 17 11.6729 17 12.0746 16.7025C12.4832 16.4019 14.7755 14.5335 14.7755 14.5335C14.7755 14.5335 15.3366 14.0196 14.6848 13.4223C14.03 12.825 12.0418 11.4966 11.6165 11.1474C11.1903 10.7927 10.5835 10.9488 10.3213 11.1891C10.0598 11.431 9.59254 11.8289 9.53536 11.8791C9.44999 11.9456 9.21596 12.1612 8.95372 12.0538C8.61983 11.9201 7.25072 11.1667 5.98147 9.40641C4.71984 7.64768 4.5811 7.07277 4.39281 6.4515C4.36088 6.35966 4.36044 6.25958 4.39156 6.16745C4.42269 6.07533 4.48356 5.99653 4.56433 5.94382C4.75339 5.81091 5.44938 5.22286 5.44938 5.22286C5.44938 5.22286 5.8999 4.77236 5.71161 4.2415C5.52332 3.71064 4.25865 0.597318 4.25865 0.597318Z" />
</svg>