<svg width="28" height="26" viewBox="0 0 28 26" fill="none" xmlns="http://www.w3.org/2000/svg">
<path fill-rule="evenodd" clip-rule="evenodd" d="M10.8889 26H17.1111C21.4806 26 23.6653 26 25.2347 24.9378C25.914 24.4778 26.4974 23.8869 26.9514 23.1988C28 21.609 28 19.3959 28 14.9696C28 10.5436 28 8.33041 26.9514 6.74064C26.4974 6.05242 25.914 5.4615 25.2347 5.00165C24.2262 4.31908 22.9638 4.07511 21.0308 3.98791C20.1083 3.98791 19.3143 3.27987 19.1334 2.36363C18.8619 0.989286 17.6707 0 16.2872 0H11.7128C10.3293 0 9.13801 0.989286 8.86666 2.36363C8.68577 3.27987 7.89159 3.98791 6.9692 3.98791C5.03626 4.07511 3.77377 4.31908 2.76534 5.00165C2.08593 5.4615 1.50259 6.05242 1.04863 6.74064C1.66893e-07 8.33041 0 10.5436 0 14.9696C0 19.3959 1.66893e-07 21.609 1.04863 23.1988C1.50259 23.8869 2.08593 24.4778 2.76534 24.9378C4.33474 26 6.51945 26 10.8889 26ZM14 9.06061C10.7783 9.06061 8.16666 11.7062 8.16666 14.9696C8.16666 18.2332 10.7783 20.8787 14 20.8787C17.2217 20.8787 19.8334 18.2332 19.8334 14.9696C19.8334 11.7062 17.2217 9.06061 14 9.06061ZM14 11.4243C12.067 11.4243 10.5 13.0116 10.5 14.9696C10.5 16.9277 12.067 18.5152 14 18.5152C15.933 18.5152 17.5 16.9277 17.5 14.9696C17.5 13.0116 15.933 11.4243 14 11.4243ZM20.6111 10.2424C20.6111 9.58972 21.1334 9.06061 21.7778 9.06061H23.3334C23.9777 9.06061 24.5 9.58972 24.5 10.2424C24.5 10.8952 23.9777 11.4243 23.3334 11.4243H21.7778C21.1334 11.4243 20.6111 10.8952 20.6111 10.2424Z" fill="#969696"/>
</svg>
