<svg width="16" height="17" viewBox="0 0 16 17" xmlns="http://www.w3.org/2000/svg">
<path d="M13.25 15.3H2.75054C2.18543 15.3 1.76812 14.7075 1.98126 14.1627C2.97021 11.6433 5.29355 10.2 7.99988 10.2C10.707 10.2 13.0304 11.6433 14.0193 14.1627C14.2325 14.7075 13.8152 15.3 13.25 15.3ZM4.73333 5.09999C4.73333 3.22489 6.1992 1.69999 7.99988 1.69999C9.80138 1.69999 11.2664 3.22489 11.2664 5.09999C11.2664 6.97509 9.80138 8.49999 7.99988 8.49999C6.1992 8.49999 4.73333 6.97509 4.73333 5.09999ZM15.9645 14.9906C15.3708 12.1354 13.5138 10.0283 11.0696 9.07202C12.3648 7.98657 13.1202 6.2313 12.8425 4.30944C12.5208 2.07989 10.7389 0.295781 8.58786 0.0356804C5.61857 -0.32387 3.10006 2.08164 3.10006 5.09999C3.10006 6.70649 3.81543 8.13787 4.93096 9.07202C2.48595 10.0283 0.629731 12.1354 0.0352192 14.9906C-0.180373 16.0284 0.623199 17 1.64318 17H14.3566C15.3774 17 16.1809 16.0284 15.9645 14.9906Z"/>
</svg>
