<svg width="14" height="12" viewBox="0 0 14 12" fill="none" xmlns="http://www.w3.org/2000/svg">
  <path d="M13.0787 0.0303383C13.1861 -0.0027416 13.2992 -0.00886815 13.4091 0.0124428C13.519 0.0337538 13.6228 0.081918 13.7121 0.153126C13.8015 0.224335 13.874 0.316634 13.924 0.422725C13.974 0.528816 14 0.645789 14 0.764392L13.9993 5.00823C13.9991 5.15016 13.9617 5.28923 13.8912 5.40989C13.8208 5.53055 13.7202 5.62804 13.6006 5.69149C13.4809 5.75493 13.347 5.78181 13.2139 5.76913C13.0807 5.75646 12.9534 5.70472 12.8463 5.6197L11.6969 4.70213L8.7707 8.83898C8.60019 9.07974 8.35201 9.24529 8.07367 9.30396C7.79533 9.36264 7.50637 9.3103 7.26212 9.15697L7.15711 9.08268L4.82108 7.22005L1.7283 11.5924C1.43429 12.0085 0.898755 12.1177 0.484331 11.8658L0.383526 11.7953C0.196659 11.6462 0.0674034 11.43 0.0199795 11.1871C-0.0274443 10.9442 0.0102187 10.6913 0.125911 10.4757L0.192415 10.3688L3.74652 5.3448C3.91695 5.10372 4.16527 4.93793 4.44382 4.87924C4.72237 4.82055 5.01152 4.8731 5.2558 5.02681L5.36011 5.1011L7.69544 6.96299L10.161 3.47846L9.00802 2.55941C8.90822 2.47952 8.8297 2.37347 8.78017 2.25166C8.73064 2.12985 8.7118 1.99647 8.7255 1.8646C8.73919 1.73273 8.78496 1.6069 8.85829 1.49947C8.93163 1.39203 9.03003 1.30668 9.14382 1.25178L9.23973 1.21463L13.0794 0.0295954L13.0787 0.0303383Z" fill="#E60000" />
</svg>