<svg width="14" height="14" viewBox="0 0 14 14" fill="none" xmlns="http://www.w3.org/2000/svg">
  <path d="M2.6285 12.7981L1.4 4.2H12.6L11.3715 12.7981C11.3238 13.1317 11.1574 13.4369 10.9028 13.6577C10.6482 13.8785 10.3225 14 9.9855 14H4.0145C3.6775 14 3.35181 13.8785 3.09721 13.6577C2.8426 13.4369 2.67619 13.1317 2.6285 12.7981ZM13.3 1.4H9.8V0.7C9.8 0.514348 9.72625 0.336301 9.59497 0.205025C9.4637 0.0737498 9.28565 0 9.1 0H4.9C4.71435 0 4.5363 0.0737498 4.40503 0.205025C4.27375 0.336301 4.2 0.514348 4.2 0.7V1.4H0.7C0.514348 1.4 0.336301 1.47375 0.205025 1.60503C0.0737498 1.7363 0 1.91435 0 2.1C0 2.28565 0.0737498 2.4637 0.205025 2.59497C0.336301 2.72625 0.514348 2.8 0.7 2.8H13.3C13.4857 2.8 13.6637 2.72625 13.795 2.59497C13.9263 2.4637 14 2.28565 14 2.1C14 1.91435 13.9263 1.7363 13.795 1.60503C13.6637 1.47375 13.4857 1.4 13.3 1.4Z" fill="#E60000" />
</svg>