<svg width="14" height="14" viewBox="0 0 14 14" fill="none" xmlns="http://www.w3.org/2000/svg">
  <path fill-rule="evenodd" clip-rule="evenodd" d="M1.00912 10.6524L0.0352518 13.2493C-0.00214435 13.3493 -0.00998313 13.4579 0.0126719 13.5622C0.0353268 13.6664 0.087518 13.762 0.163012 13.8374C0.238506 13.9128 0.334112 13.9649 0.438413 13.9874C0.542713 14.01 0.651299 14.002 0.751202 13.9645L3.34745 12.9907C3.64461 12.8794 3.9145 12.7058 4.139 12.4815L11.6594 4.96119C11.6594 4.96119 11.3971 4.17484 10.6115 3.38849C9.82584 2.60288 9.03874 2.34052 9.03874 2.34052L1.51829 9.86086C1.29403 10.0854 1.12042 10.3552 1.00912 10.6524ZM10.0875 1.29181L11.1125 0.266814C11.2963 0.0830113 11.5416 -0.0340887 11.798 0.00889733C12.159 0.0681885 12.7111 0.247544 13.2314 0.768565C13.7525 1.28959 13.9318 1.84099 13.9911 2.20193C14.0341 2.45836 13.917 2.70368 13.7332 2.88748L12.7074 3.91248C12.7074 3.91248 12.4458 3.12687 11.6594 2.34126C10.8738 1.55417 10.0875 1.29181 10.0875 1.29181Z" fill="#E60000" />
</svg>