<svg width="19" height="20" viewBox="0 0 19 20" fill="none" xmlns="http://www.w3.org/2000/svg">
<path d="M9.5 13.0205L12.6875 9.83301M12.6875 9.83301L9.5 6.64551M12.6875 9.83301H1M6.3125 4.78463V4.73322C6.3125 3.5431 6.3125 2.9476 6.54411 2.49305C6.74784 2.09319 7.07269 1.76835 7.47254 1.56462C7.92707 1.33301 8.52261 1.33301 9.71271 1.33301H14.6002C15.7903 1.33301 16.3846 1.33301 16.8391 1.56462C17.2389 1.76835 17.5649 2.09319 17.7686 2.49305C18 2.94716 18 3.54193 18 4.72972V14.9368C18 16.1246 18 16.7185 17.7686 17.1727C17.5649 17.5725 17.2389 17.8979 16.8391 18.1016C16.385 18.333 15.7911 18.333 14.6033 18.333H9.70921C8.52144 18.333 7.92665 18.333 7.47254 18.1016C7.07269 17.8979 6.74784 17.5722 6.54411 17.1723C6.3125 16.7178 6.3125 16.1231 6.3125 14.933V14.8799" stroke-linecap="round" stroke-linejoin="round"/>
</svg>
