<svg width="19" height="18" viewBox="0 0 19 18" fill="none" xmlns="http://www.w3.org/2000/svg">
<path d="M1 4.02222C1 2.96434 1 2.4354 1.20588 2.03135C1.38697 1.67593 1.67593 1.38697 2.03135 1.20588C2.4354 1 2.96435 1 4.02222 1H14.9778C16.0356 1 16.5646 1 16.9687 1.20588C17.3241 1.38697 17.6131 1.67593 17.7941 2.03135C18 2.4354 18 2.96435 18 4.02222V16.1111L14.8604 14.5413C14.6224 14.4223 14.5034 14.3628 14.3786 14.3208C14.2679 14.2836 14.1539 14.2567 14.0382 14.2405C13.9079 14.2222 13.7748 14.2222 13.5088 14.2222H4.02222C2.96434 14.2222 2.4354 14.2222 2.03135 14.0163C1.67593 13.8353 1.38697 13.5463 1.20588 13.1909C1 12.7869 1 12.2579 1 11.2V4.02222Z" stroke-linecap="round" stroke-linejoin="round"/>
</svg>
