<svg width="20" height="19" viewBox="0 0 20 19" xmlns="http://www.w3.org/2000/svg">
  <path d="M3.61779 18.186C4.41752 18.183 5.19372 17.9151 5.82504 17.4242C6.45636 16.9333 6.90723 16.247 7.10715 15.4727H12.7907C12.9637 16.1823 13.3454 16.8239 13.8863 17.3147C14.4273 17.8055 15.1029 18.123 15.826 18.2263C16.5491 18.3297 17.2866 18.2141 17.9434 17.8944C18.6002 17.5748 19.1463 17.0658 19.5111 16.433C19.876 15.8002 20.043 15.0726 19.9906 14.3441C19.9382 13.6155 19.6687 12.9193 19.2171 12.3453C18.7654 11.7712 18.1521 11.3456 17.4563 11.1233C16.7605 10.9009 16.0141 10.8921 15.3132 11.0978L12.4959 6.27984C13.0052 5.77526 13.3532 5.1307 13.4956 4.42799C13.638 3.72527 13.5683 2.9961 13.2955 2.33304C13.0227 1.66998 12.559 1.10293 11.9633 0.703887C11.3677 0.304842 10.6668 0.0917969 9.94984 0.0917969C9.23285 0.0917969 8.53202 0.304842 7.93634 0.703887C7.34065 1.10293 6.87697 1.66998 6.60416 2.33304C6.33135 2.9961 6.26171 3.72527 6.40409 4.42799C6.54646 5.1307 6.89443 5.77526 7.40381 6.27984L4.59279 11.1006C4.27627 11.0058 3.94816 10.9553 3.61779 10.9504C2.65829 10.9504 1.7381 11.3316 1.05963 12.01C0.381159 12.6885 0 13.6087 0 14.5682C0 15.5277 0.381159 16.4479 1.05963 17.1264C1.7381 17.8048 2.65829 18.186 3.61779 18.186ZM16.2801 12.7593C16.6378 12.7593 16.9876 12.8654 17.285 13.0642C17.5825 13.2629 17.8144 13.5454 17.9513 13.876C18.0882 14.2065 18.124 14.5702 18.0542 14.9211C17.9844 15.272 17.8121 15.5943 17.5592 15.8473C17.3062 16.1003 16.9839 16.2726 16.633 16.3423C16.2821 16.4121 15.9184 16.3763 15.5878 16.2394C15.2573 16.1025 14.9748 15.8706 14.776 15.5732C14.5773 15.2757 14.4712 14.926 14.4712 14.5682C14.4712 14.0885 14.6618 13.6284 15.001 13.2891C15.3402 12.9499 15.8003 12.7593 16.2801 12.7593ZM9.94893 1.90593C10.3067 1.90593 10.6564 2.01202 10.9539 2.21079C11.2514 2.40955 11.4832 2.69206 11.6201 3.02259C11.757 3.35313 11.7929 3.71683 11.7231 4.06773C11.6533 4.41862 11.481 4.74093 11.228 4.99391C10.975 5.24689 10.6527 5.41917 10.3018 5.48897C9.95094 5.55876 9.58723 5.52294 9.2567 5.38603C8.92616 5.24912 8.64365 5.01727 8.44489 4.7198C8.24613 4.42233 8.14003 4.07259 8.14003 3.71483C8.14003 3.23508 8.33062 2.77498 8.66985 2.43574C9.00908 2.09651 9.46918 1.90593 9.94893 1.90593ZM8.97394 7.18248C9.29046 7.27725 9.61856 7.32777 9.94893 7.33262C10.2806 7.32814 10.6101 7.27699 10.9275 7.18067L13.7422 11.9951C13.2805 12.4554 12.9517 13.0319 12.7907 13.6638H7.10715C6.94741 13.0349 6.62124 12.4607 6.16291 12.0014L8.97394 7.18248ZM3.61779 12.7593C3.97556 12.7593 4.32529 12.8654 4.62276 13.0642C4.92023 13.2629 5.15208 13.5454 5.289 13.876C5.42591 14.2065 5.46173 14.5702 5.39193 14.9211C5.32214 15.272 5.14986 15.5943 4.89688 15.8473C4.6439 16.1003 4.32158 16.2726 3.97069 16.3423C3.6198 16.4121 3.25609 16.3763 2.92556 16.2394C2.59503 16.1025 2.31251 15.8706 2.11375 15.5732C1.91499 15.2757 1.8089 14.926 1.8089 14.5682C1.8089 14.0885 1.99948 13.6284 2.33871 13.2891C2.67794 12.9499 3.13804 12.7593 3.61779 12.7593Z" />
</svg>