<svg width="18" height="17" viewBox="0 0 18 17" xmlns="http://www.w3.org/2000/svg">
<path d="M8.5271 0.377304C8.68167 -0.0728668 9.31833 -0.0728652 9.4729 0.377306L11.2448 5.53776C11.3141 5.73975 11.5041 5.87539 11.7177 5.87539H17.3902C17.8812 5.87539 18.0781 6.50922 17.6735 6.7874L13.1326 9.90944C12.9476 10.0366 12.8701 10.2715 12.943 10.4838L14.6885 15.5676C14.845 16.0234 14.3295 16.415 13.9323 16.1419L9.28328 12.9455C9.11264 12.8282 8.88736 12.8282 8.71672 12.9455L4.06767 16.1419C3.67051 16.415 3.15498 16.0234 3.31149 15.5676L5.057 10.4838C5.1299 10.2715 5.05236 10.0366 4.86738 9.90944L0.32649 6.7874C-0.0781198 6.50922 0.11875 5.87539 0.609765 5.87539H6.28234C6.49591 5.87539 6.68589 5.73975 6.75525 5.53776L8.5271 0.377304Z"/>
</svg>
