<svg width="20" height="12" viewBox="0 0 20 12" fill="none" xmlns="http://www.w3.org/2000/svg">
  <path d="M10 4.2772C10.957 4.2772 11.7367 5.05729 11.7367 6.01288C11.7367 6.96847 10.9562 7.7236 10 7.7236C9.04382 7.7236 8.28822 6.96847 8.28822 6.01288C8.28822 5.05729 9.04382 4.2772 10 4.2772ZM10 0C15.6895 0 19.7922 5.33342 19.7922 5.33342C20.0693 5.68603 20.0693 6.31477 19.7922 6.66658C19.7922 6.66658 15.6887 12 10 12C4.31126 12 0.20783 6.66658 0.20783 6.66658C-0.0692766 6.31397 -0.0692766 5.68523 0.20783 5.33342C0.20783 5.33342 4.31126 0 10 0ZM10 10.315C12.3667 10.315 14.3048 8.3781 14.3048 6.01288C14.3048 3.64766 12.3667 1.71072 10 1.71072C7.63332 1.71072 5.69518 3.64766 5.69518 6.01288C5.69518 8.3781 7.63332 10.315 10 10.315Z" fill="#B1B1B1" />
</svg>