<svg width="18" height="17" viewBox="0 0 18 17" fill="none" xmlns="http://www.w3.org/2000/svg">
<path d="M14.3333 4.55556V3.84444C14.3333 2.8488 14.3333 2.35097 14.1396 1.97068C13.9692 1.63617 13.6972 1.3642 13.3627 1.19377C12.9824 1 12.4845 1 11.4889 1H3.84444C2.84879 1 2.35097 1 1.97068 1.19377C1.63617 1.3642 1.3642 1.63617 1.19377 1.97068C1 2.35097 1 2.8488 1 3.84444V4.55556M1 4.55556V12.3778C1 13.3734 1 13.8713 1.19377 14.2516C1.3642 14.586 1.63617 14.858 1.97068 15.0284C2.35097 15.2222 2.84879 15.2222 3.84444 15.2222H14.1556C15.1512 15.2222 15.6491 15.2222 16.0293 15.0284C16.3638 14.858 16.6358 14.586 16.8062 14.2516C17 13.8713 17 13.3734 17 12.3778V7.4C17 6.40436 17 5.90652 16.8062 5.52624C16.6358 5.19172 16.3638 4.91976 16.0293 4.74932C15.6491 4.55556 15.1512 4.55556 14.1556 4.55556H1ZM17 8.11111H15.2222C14.2404 8.11111 13.4444 8.90702 13.4444 9.88889C13.4444 10.8708 14.2404 11.6667 15.2222 11.6667H17" stroke-linecap="round" stroke-linejoin="round"/>
</svg>
